<?xml version="1.0" encoding="UTF-8"?>
<svg width="298px" height="436px" viewBox="0 0 298 436" version="1.1" xmlns="http://www.w3.org/2000/svg" xmlns:xlink="http://www.w3.org/1999/xlink">
    <!-- Generator: Sketch 43.2 (39069) - http://www.bohemiancoding.com/sketch -->
    <title>grup</title>
    <desc>Created with Sketch.</desc>
    <defs></defs>
    <g id="Page-1" stroke="none" stroke-width="1" fill="none" fill-rule="evenodd">
        <g id="grup" fill-rule="nonzero">
            <g id="Layer_2">
                <g id="XMLID_1_">
                    <g id="Group">
                        <path d="M221.5,393.1 C202.1,401.2 179.8,406.3 155.7,407.1 C153.5,407.2 151.2,407.2 148.9,407.2 C143.8,407.2 138.8,407 133.8,406.6 C109.8,404.8 87.7,398.8 68.9,389.7 C63.3,387 58,384 53,380.8 L53,380.8 C66.7,309 95.8,263.1 148.4,262.9 C201,263 230.1,309.6 243.8,381.4 L243.8,381.4 C237,385.9 229.5,389.8 221.5,393.1 Z" id="Shape" fill="#FFFFFF"></path>
                        <path d="M257.7,129.1 C260,159 254.4,184.5 232.2,206.2 C210,227.9 162.6,228.9 148.9,229.1 C135.3,228.9 87.8,227.9 65.6,206.2 C43.4,184.5 37.8,159 40.1,129.1 C42.4,99.2 56.2,76.3 68.2,74.6 C80.1,73 106.1,78.3 118.4,111.1 C130.8,143.8 127,166.7 128,168.4 C128.9,170 139.1,176.4 148.9,176.4 C158.6,176.4 168.8,170.1 169.8,168.4 C170.7,166.8 167,143.9 179.4,111.1 C191.8,78.4 217.7,73 229.6,74.6 C241.6,76.3 255.4,99.2 257.7,129.1 Z M228.2,139.3 C228.2,130.3 223.8,123 218.5,123 C213.1,123 208.8,130.3 208.8,139.3 C208.8,148.3 213.2,155.6 218.5,155.6 C223.9,155.6 228.2,148.3 228.2,139.3 Z M93,139.3 C93,130.3 88.6,123 83.3,123 C77.9,123 73.6,130.3 73.6,139.3 C73.6,148.3 78,155.6 83.3,155.6 C88.6,155.6 93,148.3 93,139.3 Z" id="Shape" fill="#FFFFFF"></path>
                        <path d="M83.2,123 C88.6,123 92.9,130.3 92.9,139.3 C92.9,148.3 88.5,155.6 83.2,155.6 C77.8,155.6 73.5,148.3 73.5,139.3 C73.5,130.3 77.9,123 83.2,123 Z" id="Shape" fill="#000000"></path>
                        <path d="M218.5,123 C223.9,123 228.2,130.3 228.2,139.3 C228.2,148.3 223.8,155.6 218.5,155.6 C213.1,155.6 208.8,148.3 208.8,139.3 C208.8,130.3 213.1,123 218.5,123 Z" id="Shape" fill="#000000"></path>
                        <path d="M133.8,406.7 C135.8,421.7 135.5,431.5 123.7,433.5 C105.9,436.6 79.2,431 67.2,424.3 C55.2,417.6 55.6,408 68.8,389.8 L68.8,389.8 C87.7,398.8 109.8,404.9 133.8,406.7 L133.8,406.7 Z" id="Shape" fill="#000000"></path>
                        <path d="M221.5,393.1 C233.7,411.8 233.7,421.3 221.4,427.5 C209.1,433.7 182.2,438.1 164.6,434.2 C153,431.6 153,421.8 155.7,407.1 C179.8,406.3 202.1,401.3 221.5,393.1 Z" id="Shape" fill="#000000"></path>
                        <path d="M148.4,263 C95.8,263.1 66.7,309.1 53,380.9 C40,372.5 29.2,362.6 21.4,351.6 C19.4,348.8 22.6,323.8 23.3,319 C23.4,318.5 23.1,318.1 22.7,317.9 C13.1,313.9 0.2,306.6 0.8,303.7 C8.3,271.3 30.2,246.8 60.1,231.1 C33.5,206.9 16.8,172 16.8,133.1 C16.8,60 76.1,0.7 149.2,0.7 C222.3,0.7 281.6,60 281.6,133.1 C281.6,172 264.8,207 238.1,231.2 C267.9,246.9 289.6,271.4 297.1,303.7 C297.8,306.5 284.8,313.9 275.2,317.9 C274.7,318.1 274.5,318.5 274.5,319 C275.2,323.8 278.4,348.8 276.4,351.6 C268.3,362.9 257.2,373.1 243.8,381.6 C230.1,309.8 201,263.2 148.4,263 Z M232.2,206.2 C254.4,184.5 260,159 257.7,129.1 C255.4,99.2 241.6,76.3 229.7,74.6 C217.8,73 191.8,78.3 179.5,111.1 C167.1,143.8 170.8,166.7 169.9,168.4 C169,170 169.9,176.4 149,176.4 C128.1,176.4 128.1,168.4 128.1,168.4 C128.1,168.4 130.9,143.9 118.5,111.1 C106.1,78.4 80.2,73 68.3,74.6 C56.4,76.2 42.6,99.1 40.2,129.1 C37.8,159.1 43.5,184.5 65.7,206.2 C87.9,227.9 135.3,228.9 149,229.1 C162.6,228.9 210,228 232.2,206.2 Z" id="Shape" fill="#000000"></path>
                    </g>
                </g>
            </g>
        </g>
    </g>
</svg>